<?xml version="1.0" encoding="UTF-8"?>
<svg xmlns="http://www.w3.org/2000/svg" viewBox="0 0 1000 650" width="1000" height="650">
    <rect width="1000" height="650" fill="#1a1a2e" rx="8"/><text x="500" y="35" font-family="Arial" font-size="20" font-weight="bold" fill="#ffffff" text-anchor="middle">CollabSME — Diagramme de Gantt (Mars — Juillet 2026)</text><rect x="280.0" y="45" width="105.35211267605632" height="25" fill="#16213e" stroke="#0f3460" stroke-width="1"/><text x="332.67605633802816" y="63" font-family="Arial" font-size="12" fill="#a0a0b0" text-anchor="middle">Mars</text><rect x="385.3521126760563" y="45" width="143.66197183098598" height="25" fill="#16213e" stroke="#0f3460" stroke-width="1"/><text x="457.1830985915493" y="63" font-family="Arial" font-size="12" fill="#a0a0b0" text-anchor="middle">Avril</text><rect x="529.0140845070423" y="45" width="148.45070422535207" height="25" fill="#16213e" stroke="#0f3460" stroke-width="1"/><text x="603.2394366197184" y="63" font-family="Arial" font-size="12" fill="#a0a0b0" text-anchor="middle">Mai</text><rect x="677.4647887323944" y="45" width="143.66197183098598" height="25" fill="#16213e" stroke="#0f3460" stroke-width="1"/><text x="749.2957746478874" y="63" font-family="Arial" font-size="12" fill="#a0a0b0" text-anchor="middle">Juin</text><rect x="821.1267605633803" y="45" width="143.66197183098586" height="25" fill="#16213e" stroke="#0f3460" stroke-width="1"/><text x="892.9577464788733" y="63" font-family="Arial" font-size="12" fill="#a0a0b0" text-anchor="middle">Juillet</text><line x1="663.0985915492959" y1="70" x2="663.0985915492959" y2="620" stroke="#ff6b6b" stroke-width="2" stroke-dasharray="6,4"/><text x="663.0985915492959" y="40" font-family="Arial" font-size="11" fill="#ff6b6b" text-anchor="middle" font-weight="bold">AUJOURD'HUI</text><text x="270" y="126" font-family="Arial" font-size="12" fill="#e0e0e0" text-anchor="end">Analyse des besoins</text><rect x="280.0" y="105" width="100.56338028169012" height="25" rx="4" fill="#4CAF50" opacity="0.25" stroke="#4CAF50" stroke-width="1"/><rect x="280.0" y="105" width="100.56338028169012" height="25" rx="4" fill="#4CAF50" opacity="0.8"/><text x="330.28169014084506" y="121" font-family="Arial" font-size="10" fill="#ffffff" text-anchor="middle" font-weight="bold">100%</text><line x1="280" y1="140" x2="960" y2="140" stroke="#0f3460" stroke-width="0.5"/><text x="270" y="161" font-family="Arial" font-size="12" fill="#e0e0e0" text-anchor="end">Architecture technique</text><rect x="327.88732394366195" y="140" width="100.56338028169012" height="25" rx="4" fill="#4CAF50" opacity="0.25" stroke="#4CAF50" stroke-width="1"/><rect x="327.88732394366195" y="140" width="100.56338028169012" height="25" rx="4" fill="#4CAF50" opacity="0.8"/><text x="378.169014084507" y="156" font-family="Arial" font-size="10" fill="#ffffff" text-anchor="middle" font-weight="bold">100%</text><line x1="280" y1="175" x2="960" y2="175" stroke="#0f3460" stroke-width="0.5"/><text x="270" y="196" font-family="Arial" font-size="12" fill="#e0e0e0" text-anchor="end">Modèles de données JPA</text><rect x="385.3521126760563" y="175" width="67.04225352112678" height="25" rx="4" fill="#4CAF50" opacity="0.25" stroke="#4CAF50" stroke-width="1"/><rect x="385.3521126760563" y="175" width="67.04225352112678" height="25" rx="4" fill="#4CAF50" opacity="0.8"/><text x="418.8732394366197" y="191" font-family="Arial" font-size="10" fill="#ffffff" text-anchor="middle" font-weight="bold">100%</text><line x1="280" y1="210" x2="960" y2="210" stroke="#0f3460" stroke-width="0.5"/><text x="270" y="231" font-family="Arial" font-size="12" fill="#e0e0e0" text-anchor="end">Auth JWT + Gestion des rôles</text><rect x="428.45070422535207" y="210" width="95.77464788732402" height="25" rx="4" fill="#4CAF50" opacity="0.25" stroke="#4CAF50" stroke-width="1"/><rect x="428.45070422535207" y="210" width="95.77464788732402" height="25" rx="4" fill="#4CAF50" opacity="0.8"/><text x="476.3380281690141" y="226" font-family="Arial" font-size="10" fill="#ffffff" text-anchor="middle" font-weight="bold">100%</text><line x1="280" y1="245" x2="960" y2="245" stroke="#0f3460" stroke-width="0.5"/><text x="270" y="266" font-family="Arial" font-size="12" fill="#e0e0e0" text-anchor="end">CRUD Projets (Backend+Frontend)</text><rect x="452.3943661971831" y="245" width="119.71830985915483" height="25" rx="4" fill="#4CAF50" opacity="0.25" stroke="#4CAF50" stroke-width="1"/><rect x="452.3943661971831" y="245" width="119.71830985915483" height="25" rx="4" fill="#4CAF50" opacity="0.8"/><text x="512.2535211267605" y="261" font-family="Arial" font-size="10" fill="#ffffff" text-anchor="middle" font-weight="bold">100%</text><line x1="280" y1="280" x2="960" y2="280" stroke="#0f3460" stroke-width="0.5"/><text x="270" y="301" font-family="Arial" font-size="12" fill="#e0e0e0" text-anchor="end">Dashboard & Statistiques</text><rect x="529.0140845070423" y="280" width="90.9859154929577" height="25" rx="4" fill="#4CAF50" opacity="0.25" stroke="#4CAF50" stroke-width="1"/><rect x="529.0140845070423" y="280" width="90.9859154929577" height="25" rx="4" fill="#4CAF50" opacity="0.8"/><text x="574.5070422535211" y="296" font-family="Arial" font-size="10" fill="#ffffff" text-anchor="middle" font-weight="bold">100%</text><line x1="280" y1="315" x2="960" y2="315" stroke="#0f3460" stroke-width="0.5"/><text x="270" y="336" font-family="Arial" font-size="12" fill="#e0e0e0" text-anchor="end">Board Kanban & Drag & Drop</text><rect x="572.1126760563379" y="315" width="95.77464788732414" height="25" rx="4" fill="#4CAF50" opacity="0.25" stroke="#4CAF50" stroke-width="1"/><rect x="572.1126760563379" y="315" width="95.77464788732414" height="25" rx="4" fill="#4CAF50" opacity="0.8"/><text x="620.0" y="331" font-family="Arial" font-size="10" fill="#ffffff" text-anchor="middle" font-weight="bold">100%</text><line x1="280" y1="350" x2="960" y2="350" stroke="#0f3460" stroke-width="0.5"/><text x="270" y="371" font-family="Arial" font-size="12" fill="#e0e0e0" text-anchor="end">Commentaires & Notifications</text><rect x="596.056338028169" y="350" width="100.56338028169012" height="25" rx="4" fill="#2196F3" opacity="0.25" stroke="#2196F3" stroke-width="1"/><rect x="596.056338028169" y="350" width="80.4507042253521" height="25" rx="4" fill="#2196F3" opacity="0.8"/><text x="646.338028169014" y="366" font-family="Arial" font-size="10" fill="#ffffff" text-anchor="middle" font-weight="bold">80%</text><line x1="280" y1="385" x2="960" y2="385" stroke="#0f3460" stroke-width="0.5"/><text x="270" y="406" font-family="Arial" font-size="12" fill="#e0e0e0" text-anchor="end">Membres & Rôles par projet</text><rect x="620.0" y="385" width="100.56338028169012" height="25" rx="4" fill="#2196F3" opacity="0.25" stroke="#2196F3" stroke-width="1"/><rect x="620.0" y="385" width="80.4507042253521" height="25" rx="4" fill="#2196F3" opacity="0.8"/><text x="670.2816901408451" y="401" font-family="Arial" font-size="10" fill="#ffffff" text-anchor="middle" font-weight="bold">80%</text><line x1="280" y1="420" x2="960" y2="420" stroke="#0f3460" stroke-width="0.5"/><text x="270" y="441" font-family="Arial" font-size="12" fill="#e0e0e0" text-anchor="end">Intégration IA (OpenRouter)</text><rect x="677.4647887323944" y="420" width="114.92957746478874" height="25" rx="4" fill="#9E9E9E" opacity="0.25" stroke="#9E9E9E" stroke-width="1"/><text x="734.9295774647887" y="436" font-family="Arial" font-size="10" fill="#ffffff" text-anchor="middle" font-weight="bold">0%</text><line x1="280" y1="455" x2="960" y2="455" stroke="#0f3460" stroke-width="0.5"/><text x="270" y="476" font-family="Arial" font-size="12" fill="#e0e0e0" text-anchor="end">Tests intensifs & Correction bugs</text><rect x="744.5070422535211" y="455" width="119.71830985915483" height="25" rx="4" fill="#9E9E9E" opacity="0.25" stroke="#9E9E9E" stroke-width="1"/><text x="804.3661971830986" y="471" font-family="Arial" font-size="10" fill="#ffffff" text-anchor="middle" font-weight="bold">0%</text><line x1="280" y1="490" x2="960" y2="490" stroke="#0f3460" stroke-width="0.5"/><text x="270" y="511" font-family="Arial" font-size="12" fill="#e0e0e0" text-anchor="end">Déploiement Docker + Firebase</text><rect x="821.1267605633803" y="490" width="90.9859154929577" height="25" rx="4" fill="#9E9E9E" opacity="0.25" stroke="#9E9E9E" stroke-width="1"/><text x="866.6197183098592" y="506" font-family="Arial" font-size="10" fill="#ffffff" text-anchor="middle" font-weight="bold">0%</text><line x1="280" y1="525" x2="960" y2="525" stroke="#0f3460" stroke-width="0.5"/><text x="270" y="546" font-family="Arial" font-size="12" fill="#e0e0e0" text-anchor="end">Documentation & Rapport</text><rect x="864.225352112676" y="525" width="95.77464788732402" height="25" rx="4" fill="#9E9E9E" opacity="0.25" stroke="#9E9E9E" stroke-width="1"/><text x="912.1126760563379" y="541" font-family="Arial" font-size="10" fill="#ffffff" text-anchor="middle" font-weight="bold">0%</text><line x1="280" y1="560" x2="960" y2="560" stroke="#0f3460" stroke-width="0.5"/><rect x="280" y="622" width="12" height="12" fill="#4CAF50" rx="2"/><text x="296" y="632" font-family="Arial" font-size="11" fill="#a0a0b0">Terminé (100%)</text><rect x="390" y="622" width="12" height="12" fill="#2196F3" rx="2"/><text x="406" y="632" font-family="Arial" font-size="11" fill="#a0a0b0">En cours</text><rect x="490" y="622" width="12" height="12" fill="#9E9E9E" rx="2"/><text x="506" y="632" font-family="Arial" font-size="11" fill="#a0a0b0">À venir</text><line x1="600" y1="628" x2="620" y2="628" stroke="#ff6b6b" stroke-width="2" stroke-dasharray="4,3"/><text x="626" y="632" font-family="Arial" font-size="11" fill="#a0a0b0">Aujourd'hui (29 mai)</text>
</svg>